HIERARCHY
ROOT Hips
{
	OFFSET -14.64140 90.27770 -84.91600
	CHANNELS 6 Xposition Yposition Zposition Zrotation Xrotation Yrotation
	JOINT Spine
	{
		OFFSET 0.00000 13.20850 -1.60436
		CHANNELS 3 Zrotation Xrotation Yrotation
		JOINT Spine1
		{
			OFFSET 0.00000 8.61716 0.00000
			CHANNELS 3 Zrotation Xrotation Yrotation
			JOINT Spine2
			{
				OFFSET 0.00000 8.61717 0.00000
				CHANNELS 3 Zrotation Xrotation Yrotation
				JOINT Spine3
				{
					OFFSET 0.00000 8.61717 0.00000
					CHANNELS 3 Zrotation Xrotation Yrotation
					JOINT Neck
					{
						OFFSET 0.00000 11.07920 1.10792
						CHANNELS 3 Zrotation Xrotation Yrotation
						JOINT Neck1
						{
							OFFSET 0.00000 7.08032 0.00000
							CHANNELS 3 Zrotation Xrotation Yrotation
							JOINT Head
							{
								OFFSET 0.00000 7.08031 0.00000
								CHANNELS 3 Zrotation Xrotation Yrotation
								End site
								{
									OFFSET 0.00000 0.00000 0.00000
								}
							}
						}
					}
					JOINT RightShoulder
					{
						OFFSET -0.01000 7.91373 5.19711
						CHANNELS 3 Zrotation Xrotation Yrotation
						JOINT RightArm
						{
							OFFSET -18.41580 0.00000 0.00000
							CHANNELS 3 Zrotation Xrotation Yrotation
							JOINT RightForeArm
							{
								OFFSET -29.11090 0.00000 0.00000
								CHANNELS 3 Zrotation Xrotation Yrotation
								JOINT RightHand
								{
									OFFSET -24.65040 0.00000 0.00000
									CHANNELS 3 Zrotation Xrotation Yrotation
									JOINT RightHandThumb1
									{
										OFFSET -5.35114 -0.85590 3.97906
										CHANNELS 3 Zrotation Xrotation Yrotation
										JOINT RightHandThumb2
										{
											OFFSET -4.52789 0.00000 0.00000
											CHANNELS 3 Zrotation Xrotation Yrotation
											JOINT RightHandThumb3
											{
												OFFSET -2.46976 0.00000 0.00000
												CHANNELS 3 Zrotation Xrotation Yrotation
												End site
												{
													OFFSET 0.00000 0.00000 0.00000
												}
											}
										}
									}
									JOINT RightHandIndex1
									{
										OFFSET -14.26970 0.00000 2.88139
										CHANNELS 3 Zrotation Xrotation Yrotation
										JOINT RightHandIndex2
										{
											OFFSET -5.48836 0.00000 0.00000
											CHANNELS 3 Zrotation Xrotation Yrotation
											JOINT RightHandIndex3
											{
												OFFSET -3.01859 0.00000 0.00000
												CHANNELS 3 Zrotation Xrotation Yrotation
												End site
												{
													OFFSET 0.00000 0.00000 0.00000
												}
											}
										}
									}
									JOINT RightHandMiddle1
									{
										OFFSET -14.26970 0.00000 -0.09147
										CHANNELS 3 Zrotation Xrotation Yrotation
										JOINT RightHandMiddle2
										{
											OFFSET -6.17441 0.00000 0.00000
											CHANNELS 3 Zrotation Xrotation Yrotation
											JOINT RightHandMiddle3
											{
												OFFSET -3.56743 0.00000 0.00000
												CHANNELS 3 Zrotation Xrotation Yrotation
												End site
												{
													OFFSET 0.00000 0.00000 0.00000
												}
											}
										}
									}
									JOINT RightHandRing1
									{
										OFFSET -12.69180 0.00000 -3.06433
										CHANNELS 3 Zrotation Xrotation Yrotation
										JOINT RightHandRing2
										{
											OFFSET -5.62556 0.00000 0.00000
											CHANNELS 3 Zrotation Xrotation Yrotation
											JOINT RightHandRing3
											{
												OFFSET -3.56744 0.00000 0.00000
												CHANNELS 3 Zrotation Xrotation Yrotation
												End site
												{
													OFFSET 0.00000 0.00000 0.00000
												}
											}
										}
									}
									JOINT RightHandPinky1
									{
										OFFSET -11.11390 0.00000 -6.03719
										CHANNELS 3 Zrotation Xrotation Yrotation
										JOINT RightHandPinky2
										{
											OFFSET -4.52789 0.00000 0.00000
											CHANNELS 3 Zrotation Xrotation Yrotation
											JOINT RightHandPinky3
											{
												OFFSET -2.46976 0.00000 0.00000
												CHANNELS 3 Zrotation Xrotation Yrotation
												End site
												{
													OFFSET 0.00000 0.00000 0.00000
												}
											}
										}
									}
								}
							}
						}
					}
					JOINT LeftShoulder
					{
						OFFSET 0.01000 7.91373 5.19711
						CHANNELS 3 Zrotation Xrotation Yrotation
						JOINT LeftArm
						{
							OFFSET 18.41580 0.00000 0.00000
							CHANNELS 3 Zrotation Xrotation Yrotation
							JOINT LeftForeArm
							{
								OFFSET 29.11090 0.00000 0.00000
								CHANNELS 3 Zrotation Xrotation Yrotation
								JOINT LeftHand
								{
									OFFSET 24.65040 0.00000 0.00000
									CHANNELS 3 Zrotation Xrotation Yrotation
									JOINT LeftHandThumb1
									{
										OFFSET 5.35114 -0.85590 3.97906
										CHANNELS 3 Zrotation Xrotation Yrotation
										JOINT LeftHandThumb2
										{
											OFFSET 4.52789 0.00000 0.00000
											CHANNELS 3 Zrotation Xrotation Yrotation
											JOINT LeftHandThumb3
											{
												OFFSET 2.46977 0.00000 0.00000
												CHANNELS 3 Zrotation Xrotation Yrotation
												End site
												{
													OFFSET 0.00000 0.00000 0.00000
												}
											}
										}
									}
									JOINT LeftHandIndex1
									{
										OFFSET 14.26970 0.00000 2.88139
										CHANNELS 3 Zrotation Xrotation Yrotation
										JOINT LeftHandIndex2
										{
											OFFSET 5.48836 0.00000 0.00000
											CHANNELS 3 Zrotation Xrotation Yrotation
											JOINT LeftHandIndex3
											{
												OFFSET 3.01859 0.00000 0.00000
												CHANNELS 3 Zrotation Xrotation Yrotation
												End site
												{
													OFFSET 0.00000 0.00000 0.00000
												}
											}
										}
									}
									JOINT LeftHandMiddle1
									{
										OFFSET 14.26970 0.00000 -0.09147
										CHANNELS 3 Zrotation Xrotation Yrotation
										JOINT LeftHandMiddle2
										{
											OFFSET 6.17440 0.00000 0.00000
											CHANNELS 3 Zrotation Xrotation Yrotation
											JOINT LeftHandMiddle3
											{
												OFFSET 3.56744 0.00000 0.00000
												CHANNELS 3 Zrotation Xrotation Yrotation
												End site
												{
													OFFSET 0.00000 0.00000 0.00000
												}
											}
										}
									}
									JOINT LeftHandRing1
									{
										OFFSET 12.69180 0.00000 -3.06433
										CHANNELS 3 Zrotation Xrotation Yrotation
										JOINT LeftHandRing2
										{
											OFFSET 5.62556 0.00000 0.00000
											CHANNELS 3 Zrotation Xrotation Yrotation
											JOINT LeftHandRing3
											{
												OFFSET 3.56744 0.00000 0.00000
												CHANNELS 3 Zrotation Xrotation Yrotation
												End site
												{
													OFFSET 0.00000 0.00000 0.00000
												}
											}
										}
									}
									JOINT LeftHandPinky1
									{
										OFFSET 11.11390 0.00000 -6.03719
										CHANNELS 3 Zrotation Xrotation Yrotation
										JOINT LeftHandPinky2
										{
											OFFSET 4.52789 0.00000 0.00000
											CHANNELS 3 Zrotation Xrotation Yrotation
											JOINT LeftHandPinky3
											{
												OFFSET 2.46976 0.00000 0.00000
												CHANNELS 3 Zrotation Xrotation Yrotation
												End site
												{
													OFFSET 0.00000 0.00000 0.00000
												}
											}
										}
									}
								}
							}
						}
					}
					JOINT pCube4
					{
						OFFSET 0.00000 10.91090 1.10792
						CHANNELS 3 Zrotation Xrotation Yrotation
						End site
						{
							OFFSET 0.00000 0.00000 0.00000
						}
					}
				}
			}
		}
	}
	JOINT RightUpLeg
	{
		OFFSET -9.98441 0.00000 0.00000
		CHANNELS 3 Zrotation Xrotation Yrotation
		JOINT RightLeg
		{
			OFFSET 0.00000 -42.11790 0.00000
			CHANNELS 3 Zrotation Xrotation Yrotation
			JOINT RightFoot
			{
				OFFSET 0.00000 -45.00020 -0.00001
				CHANNELS 3 Zrotation Xrotation Yrotation
				JOINT RightForeFoot
				{
					OFFSET 0.00000 -3.74820 0.00000
					CHANNELS 3 Zrotation Xrotation Yrotation
					JOINT RightToeBase
					{
						OFFSET 0.00000 0.06325 14.43120
						CHANNELS 3 Zrotation Xrotation Yrotation
						End site
						{
							OFFSET 0.00000 0.00000 0.00000
						}
					}
				}
			}
		}
	}
	JOINT LeftUpLeg
	{
		OFFSET 9.98441 0.00000 0.00000
		CHANNELS 3 Zrotation Xrotation Yrotation
		JOINT LeftLeg
		{
			OFFSET 0.00000 -42.11800 0.00000
			CHANNELS 3 Zrotation Xrotation Yrotation
			JOINT LeftFoot
			{
				OFFSET 0.00000 -45.00070 0.00000
				CHANNELS 3 Zrotation Xrotation Yrotation
				JOINT LeftForeFoot
				{
					OFFSET 0.00000 -3.74824 0.00000
					CHANNELS 3 Zrotation Xrotation Yrotation
					JOINT LeftToeBase
					{
						OFFSET 0.00000 0.06325 14.43110
						CHANNELS 3 Zrotation Xrotation Yrotation
						End site
						{
							OFFSET 0.00000 0.00000 0.00000
						}
					}
				}
			}
		}
	}
}
MOTION
Frames: 4
Frame Time: 0.050000
0.010684928212499016 -0.0017461712625218906 -0.039042420787076745 0.006343715933835762 0.020294288190707097 -0.002797209162768703 -3.1911724045040537 2.0945861542152646 -0.6616212154038527 -1.034851745164779 3.7959670208794325 0.3725015191976163 -0.9887771254929765 -1.836635915974949 -2.274423826266757 -0.889546080014408 0.5431109272462665 -0.9982680993000392 -2.287280720535167 13.630504305292746 5.3914292495773255 -0.5238025147740711 -0.7989563751312772 11.554230683939435 -2.058482869729345 -16.67958892252148 1.0385773664021498 -3.9444590500930534 1.555566218518644 -13.259457233854882 73.03132521899796 20.2474214479996 10.332600757916744 11.640918609903093 5.657459421886424 70.74202979985935 18.19391685640076 -0.30464812144418996 -3.6477425434757333 4.5124590363459856 -0.12778374383937308 -1.5613296878093823 -0.017306904543956267 -0.03498382735234081 -56.20314678667368 0.01876422653953161 0.024587674475301285 -56.20076487224522 -38.75131090623246 0.005089146877576417 -0.043910003959975866 -0.04133160903786636 0.028781551608911108 0.029460330664320147 -0.02936783377507893 -0.024046680466673374 0.016901004166083766 -36.65163897778536 0.025160945869713954 0.017277002267248445 0.020023201708156108 -0.024343413035619384 -0.003083179339802786 -0.019599170134552226 0.006164150065745306 0.035930445197034186 -19.761337609871145 -0.02182012443332739 0.023007559353473598 0.040623880142782745 0.0209142370824003 -0.01453020680738793 -0.03177854487116153 -0.04988294980617754 0.025758340740480043 24.027763049999994 -0.010823729295293964 -0.01198072827733455 28.87800595862181 0.0005033410488525325 0.040463423763894765 28.87391887276173 -0.029523691522218388 -0.04945485335956389 10.319161602432196 2.109178842919931 12.33601313740776 -70.61650953819054 8.443629101723152 -28.738248920484523 -65.42158942852578 9.706307516752135 -92.1087663509291 -7.357697011714309 2.3749499730178165 -2.0853291114235906 -0.4539298310632839 0.054469533173469975 -8.131522368654126 -0.04931622273141597 0.00691841261536269 44.52110566753153 -0.020817849437693606 0.0468219919231888 44.549667787767916 12.463455408513058 0.011228593763014105 0.004826137917426147 0.010405881048909719 -0.0038453494554961535 -0.041454636664496114 -0.015471547162287583 0.021080765161843422 -0.03116372985403897 11.152950063453355 0.02644276162939328 -0.023069692636460012 0.0009521217739427238 -0.009702827758695291 0.028955037187490804 -0.042105634165018634 0.017913339670965915 -0.02713818286650665 4.7293944637719205 0.011794960813408957 0.04111149522253541 -0.005821455968560397 0.03939400950074917 0.04732177841785519 0.010145580077166115 0.02940210807521421 -0.005561620466325567 -5.573343638208472 -0.025615578166512092 0.016663883336432726 -6.738658646398932 0.04751332760740772 0.01528905102032292 -6.766363938391319 0.0071681251946365925 0.011241657222262435 0.006482300350487878 0.03803639334819923 0.048550134552034746 8.037058919470319 3.529029788589412 -19.190868717111947 0.0023690678884814346 10.374104504168312 -0.016852144224513133 -5.609310810152852 -15.693912434307842 3.1956307921331075 0.026989058810961693 0.03823433845653814 -0.016050234610687966 0.032046960033012405 4.72211418672302 0.01756332258109847 12.479442789519155 -8.203379730787987 6.8972418147103935 -0.03359904060485808 46.382055210771135 -0.019839173168862478 -4.283572879618237 -14.726098330918461 -3.834605335964989 0.03150417314092082 -0.02193400594267097 0.011871756077380828 0.0006876004104840285 -10.786719349738824 0.002299788690536275 
-0.03767422326751202 0.043919107391011784 0.0022930133937603225 -0.03005467970186044 0.021371472651205686 -0.004526073306260685 -3.155035015572412 2.109143847844381 -0.6751844039548648 -1.0166728988880531 3.8590421709873883 0.36723669389306185 -1.0245428595781763 -1.8019489535696476 -2.126243805573415 -0.784201229115875 0.4728257598179526 -0.9286188518256252 -2.1335019883022164 13.721479157255214 4.946096297549925 -0.5531879541242534 -0.7613428720342873 10.383204447095451 -1.9797063610924117 -16.600712505014993 0.9769870797685936 -4.082416849348292 1.623347815689387 -13.27375139623548 73.12258711366326 18.43786070757642 11.368111053484396 12.363765139516657 6.017980491247019 71.87944473746893 17.208982181491724 -0.3757788284188373 -3.462302986972722 4.531954782673133 -0.09248733151930319 -1.588860010395577 0.023203040493106033 0.01594807820471742 -56.246258840397914 0.036222627107949004 0.021875049323678564 -56.25020521152682 -38.73425988043973 -0.017036279282423152 -0.04656484207950763 -0.024589788399217407 0.033067624508367505 0.017711033373315695 0.021983362482713497 0.03388624120967327 0.0025677559801642585 -36.65174583225229 -0.037725004536850335 0.009606736012134586 -0.034703334042186944 -0.04223939629688549 0.03036410813573435 0.005962373882510324 0.007546730850987479 0.02223355324527331 -19.803067180320316 0.03695581091804728 0.029019085220878732 0.008410985834840151 -0.04042130122626423 -0.0015797992091059728 -0.023585328593391828 -0.02264912527190655 -0.021345494614178694 24.09333602327812 -0.008882201256656772 -0.009107981686300313 28.887532847375738 0.005377649744405237 0.01483078349079581 28.902911634555984 0.01305821589975331 0.008733132319660641 10.15680198183532 2.144797745977061 12.447086915267342 -70.5236620533374 8.195381133990663 -28.298675261793267 -64.11280373767651 10.200708242905907 -92.24727069595211 -6.996199573862005 2.7249163383412647 -2.320748209665898 -0.5128821695017368 0.07503005562677537 -8.162351408668108 -0.015843296257865798 -0.04488198942812289 44.53727636957364 -0.0001049947583791422 0.022650799654721953 44.55173497187872 12.488488980975628 0.046607346606039504 0.029748541547412657 0.009615220865219692 -0.0009467106966055945 0.027109592609716453 -0.03421942400159501 0.038238216760992545 0.033419113309336584 11.064422397181271 0.028309852663696847 -0.002791482437417582 0.005574771183966752 -0.012786864323070152 -0.028247351362650507 -0.0011836222700578217 0.01505395685663964 0.025504812374506386 4.7783007419929255 0.005738157398522044 0.044163194941148204 0.029350518793716605 -0.004540636122468494 -0.01274007623337277 -0.012823025335667277 -0.03552001367819553 -0.04563881066851314 -5.645710461115966 -0.004692405001639979 0.033379972047063604 -6.6758776360245875 0.04065168315346563 -0.048771412959088836 -6.7565196748774765 0.014674344000116551 0.013024977953782645 0.027685212246639026 -0.040512079014545434 -0.00718183402961049 8.051901957054746 3.5141148840002745 -19.24206941746734 -0.012875301796616381 10.36201524894882 0.028434146262662108 -5.666272977494198 -15.686601886276462 3.18326854311172 -0.03356388372839884 0.04820056378654977 0.03302518427930127 0.02914868641266372 4.69706595986825 0.003295902013263981 12.483113712615515 -8.21921908185489 6.90846180611098 0.0286347787792313 46.388596456152676 -0.033976627737978 -4.2968084679171525 -14.778173877990136 -3.853994904606675 0.021097811697902914 0.015403471009028013 -0.03326629607831933 -0.006194669926714231 -10.78078192582978 0.0029231999032837065 
-0.021722086140451638 0.009676172963821061 -0.04569008205740914 0.0035204632340809987 0.004777578671375638 -0.016056323343753957 -3.08670028346396 2.14336083666943 -0.632854258942089 -1.0924329422430346 3.8455266671372192 0.40766289042468873 -1.062564937376897 -1.7538129010241812 -1.9759827498831675 -0.7259160507531033 0.557420949656432 -0.931691170745266 -2.001148512515041 13.682081768292102 4.460335755736788 -0.572385789079265 -0.7604023137618255 9.156025471463641 -1.7521331487719585 -16.5417266250862 0.8663719780041991 -4.37494749667715 1.7032148932633329 -13.345691273877325 73.00875722500099 16.864078682155732 12.165085772686538 12.915344620658622 6.054028229862449 72.19992721736493 16.277499891105798 -0.34217093943264437 -3.074303365480203 4.54729013470155 -0.08569758292138194 -1.5487455831916315 0.02884356643208847 -0.01661688282469391 -56.19042707605644 0.025123289755148895 0.027600467180325463 -56.237677313448266 -38.7686126180038 -0.030519354104355464 -0.040057457173995156 -0.029237589202505132 -0.04971884767767684 0.011303599135142242 0.025935917348626967 0.012136655949855418 0.021834457681306794 -36.69648884897487 0.017608519917186854 -0.00630455976449584 0.013910227653748804 0.04691149458110615 -0.015412798388960824 -0.03148689289091875 0.04650920104710119 0.03497647703013182 -19.727664562779516 -0.002740710543904153 0.033172238232460294 -0.03384700988568659 0.0364963831630525 -0.008271627678327072 -0.02222828139431761 -0.04443937913697897 0.01872200597801564 24.008408924706135 -0.01985084827415492 -0.03626994108424406 28.86403638789093 0.001814678759020556 0.025341222706053757 28.87686593611665 0.01644683715416042 0.002188301277801138 9.904966937769817 2.072637406583056 12.477344768542686 -70.13359903824993 8.777012123708401 -27.63162879474782 -60.849943387419984 10.532954391744724 -91.09494234752047 -6.593388101397968 3.0319055698585955 -2.5631790719464185 -0.5140668333390044 0.06272220390537794 -8.165770107825752 -0.017780429087306843 -0.029594571777239315 44.52439695038376 0.0029629434752075656 -0.04453743589084546 44.52849459975449 12.504776575547181 0.024934473154721203 -0.03185497925294697 0.030457112963775495 -0.03210191939721044 0.002470762261175844 0.004298560408841561 0.0325428319014652 -0.0178938456889757 11.101432798441149 -0.008914991282346171 -0.04553548909293352 -0.01735177894220135 0.01111082314091491 -0.02944355143027756 -0.0018638512732019948 -0.00012813538354509982 -0.0070630191468053155 4.8061031653452995 -0.00718164177306002 0.01784701294093779 -0.0109060205860336 -0.0007022471802864505 0.02826048777826938 -0.0446938309391315 -0.04519120003706231 0.0030567327439100333 -5.599381126731028 0.004135251593008177 0.02736594113839065 -6.709706082996287 -0.018265944844170157 -0.0433911245172966 -6.70726011369621 0.0031847850571196487 0.005118657041757475 -0.012902080623975107 -0.012501635651309361 0.02706645757621152 8.009375550822098 3.521265007903138 -19.18804482516049 -0.04990496323228909 10.430248533218421 0.002300009448544308 -5.6430124791262 -15.651958216814863 3.1552978685470343 0.042049507091357005 0.03327028064693635 -0.04335396230738393 -0.026118737259627767 4.728320593043955 0.02811011335131595 12.427781860063877 -8.239620589387384 6.919178243229404 -0.033943951376751526 46.357741892420016 0.0024306403443569513 -4.34128317256835 -14.77152654875954 -3.8040227469359778 0.013089835032545604 -0.019270348213505997 -0.049181582980880434 0.0228499784488378 -10.74148472732986 0.011062264135088486 
-0.04082576260816874 0.029846552281767098 0.02965796895382264 -0.0449265439969285 -0.025099565138377723 0.0023396160214384713 -2.999898205291417 2.152333125798366 -0.6995862050125822 -1.0924046301671932 3.8494369107318027 0.3432944621229 -1.086532533082781 -1.7316285230686308 -1.875089970065786 -0.7052093484910806 0.5061548470874162 -0.9640521323825736 -1.8232210550827788 13.744761554500155 4.100718824730196 -0.524800490320255 -0.6892179055038697 8.271753891972958 -1.7045673596170465 -16.43811236223018 0.7770318180258572 -4.50021506933802 1.7392838074334838 -13.36778104227183 72.9252282713812 16.501681189202827 12.140461146716081 12.047427678324645 5.772137559142966 69.83664780159265 15.62295044478253 -0.31789873674988295 -2.669463960450161 4.546926605554105 -0.14938034841830197 -1.5590470705764237 -0.008759115118038435 0.04600321822260402 -56.23844647253849 0.04643892077874107 0.0418776469779186 -56.19820558837084 -38.7839518541589 0.021475449485677405 -0.04262088328527969 0.03874244900285927 0.04368141406318004 -0.009331381077285351 0.017673236405337397 -0.04202089824985982 0.043005734824339746 -36.690934957668524 0.02581820872919747 0.00018893854028211333 -0.01851989595901303 -0.01718033974397508 -0.02136416359985611 -0.011973854083008871 0.027695857168377844 0.042801330141635605 -19.75379476248148 -0.005077810175974823 0.021516202335885998 -0.03846387504348506 -0.00992652998199359 -0.02594726825139347 -0.028074038344332565 0.011073579928548547 0.016093380173408424 24.086072517226288 0.015747902338544166 0.03251872639596323 28.850522225289673 -0.002868245248924793 -0.003209007486761562 28.896723853163945 0.00345853210527469 0.006829069981673517 9.65671323978981 2.0690914232650597 12.51003928083568 -69.88371356494395 9.799040815598735 -26.881966422755422 -56.60174525819515 11.059438498303928 -88.37415875821938 -6.345227422219643 3.0224507327774117 -2.508597272201928 -0.4498210186262256 0.11178191479191915 -8.099857736452783 0.006048681851990262 0.0363570879285219 44.56094901376292 -0.04373018553533764 0.0040645847386207076 44.567676525720785 12.478104478554773 0.044797963563113795 -0.020766885407593517 -0.0007050969928886089 0.029474297594913386 -0.030406186589639183 -0.029600822037836313 0.011219347610201939 0.0030397030050149793 11.10442908402794 0.028739212067878432 -0.02486339260792005 0.04879259332801809 -0.04381852975578798 -0.0003420508847826687 0.0021159003435222575 0.044144389584345835 0.0016417083338795193 4.782710087720404 0.008957313470355329 0.0002461662289258191 0.009264475312733913 0.04810037827652335 0.022623671978811554 -0.02218038140558728 -0.03775902420779234 0.02139817823524831 -5.552495520634984 0.010962951130372866 0.031326606211720995 -6.761085387411418 -0.040733487988926315 -0.012852236489027308 -6.712166183736637 -0.04190869683291962 0.00972533771051892 0.013956371025586925 0.0026324534895220404 0.0033112941960785247 8.042768254667088 3.4839802320904916 -19.220638448925804 0.013668003740838717 10.413082902629387 0.02149853090568784 -5.618660362890035 -15.669531901348202 3.2130191521227918 -0.018155904218779797 -0.0290852042893275 0.015768322731626736 0.04894010368948805 4.687847450071312 -0.01029466567784486 12.473615265904892 -8.284597391595144 6.901174302241874 0.009308725875447905 46.3488720677214 -0.019639238534896165 -4.297296989355203 -14.709983202804727 -3.8163212074529564 0.0008322595902481984 0.04471635035096631 0.039831832521051054 -0.040138015476610174 -10.773958914651876 0.03673536683127714 
